<?xml version="1.0" encoding="utf-8"?>
<svg xmlns="http://www.w3.org/2000/svg" xmlns:xlink="http://www.w3.org/1999/xlink" style="margin: auto; background: rgba(0, 0, 0, 0) none repeat scroll 0% 0%; display: block; z-index: 1; position: relative; shape-rendering: auto;" width="1920" height="966" preserveAspectRatio="xMidYMid" viewBox="0 0 1920 966">
<g transform="translate(960,483) scale(1,1) translate(-960,-483)"><path d="M-100 768.99C117.73 781.82 114.57 776.77 324 776.77S539.68 814.27 748 814.27S963.78 815.06 1172 815.06S1388.64 815.74 1596 815.74S1809.98 775.11 2020 775.11S2236.88 765.81 2444 765.81L2020 966 L-100 966 Z" fill="#00e4ff" stroke-width="0">
  <animate attributeName="d" dur="10s" repeatCount="indefinite" values="M-100 768.99C117.73 781.82 114.57 776.77 324 776.77S539.68 814.27 748 814.27S963.78 815.06 1172 815.06S1388.64 815.74 1596 815.74S1809.98 775.11 2020 775.11S2236.88 765.81 2444 765.81L2020 966 L-100 966 Z;M-100 811.5C115.61 786.8 113.41 776.18 324 776.18S536.24 801.1 748 801.1S964.7 789.02 1172 789.02S1386.39 780.7 1596 780.7S1809.99 776.92 2020 776.92S2232.9 795.88 2444 795.88L2020 966 L-100 966 Z;M-100 768.99C117.73 781.82 114.57 776.77 324 776.77S539.68 814.27 748 814.27S963.78 815.06 1172 815.06S1388.64 815.74 1596 815.74S1809.98 775.11 2020 775.11S2236.88 765.81 2444 765.81L2020 966 L-100 966 Z"></animate>
  <animateTransform attributeName="transform" type="translate" dur="10s" begin="0s" repeatCount="indefinite" values="0;10;0" calcMode="spline" keySplines="0.3 0 0.7 1;0.3 0 0.7 1"></animateTransform>
</path><path d="M-100 825.23C134.97 778.28 133.31 805.99 358.38 805.99S591.26 809.99 816.76 809.99S1046.63 786.41 1275.14 786.41S1505.36 790.43 1733.51 790.43S1967.6 851.18 2191.89 851.18L2020 966 L-100 966 Z" fill="#00c3ff" stroke-width="0">
  <animate attributeName="d" dur="7.5s" repeatCount="indefinite" values="M-100 825.23C134.97 778.28 133.31 805.99 358.38 805.99S591.26 809.99 816.76 809.99S1046.63 786.41 1275.14 786.41S1505.36 790.43 1733.51 790.43S1967.6 851.18 2191.89 851.18L2020 966 L-100 966 Z;M-100 797.85C134.52 810.25 134.14 859.62 358.38 859.62S590.5 836.03 816.76 836.03S1047.58 865.59 1275.14 865.59S1509.69 779.72 1733.51 779.72S1967.65 826.09 2191.89 826.09L2020 966 L-100 966 Z;M-100 825.23C134.97 778.28 133.31 805.99 358.38 805.99S591.26 809.99 816.76 809.99S1046.63 786.41 1275.14 786.41S1505.36 790.43 1733.51 790.43S1967.6 851.18 2191.89 851.18L2020 966 L-100 966 Z"></animate>
  <animateTransform attributeName="transform" type="translate" dur="7.5s" begin="-1.875s" repeatCount="indefinite" values="0;10;0" calcMode="spline" keySplines="0.3 0 0.7 1;0.3 0 0.7 1"></animateTransform>
</path><path d="M-100 794.82C150.55 825.59 152.91 884.1 398.82 884.1S650.15 836.08 897.65 836.08S1148.8 850.27 1396.47 850.27S1649.95 793.39 1895.29 793.39S2146.91 863.37 2394.12 863.37L2020 966 L-100 966 Z" fill="#009eff" stroke-width="0">
  <animate attributeName="d" dur="5s" repeatCount="indefinite" values="M-100 794.82C150.55 825.59 152.91 884.1 398.82 884.1S650.15 836.08 897.65 836.08S1148.8 850.27 1396.47 850.27S1649.95 793.39 1895.29 793.39S2146.91 863.37 2394.12 863.37L2020 966 L-100 966 Z;M-100 802.85C154.64 798.82 151.63 854.87 398.82 854.87S648.81 873.45 897.65 873.45S1148.15 906.81 1396.47 906.81S1650.8 828.67 1895.29 828.67S2148.04 886.55 2394.12 886.55L2020 966 L-100 966 Z;M-100 794.82C150.55 825.59 152.91 884.1 398.82 884.1S650.15 836.08 897.65 836.08S1148.8 850.27 1396.47 850.27S1649.95 793.39 1895.29 793.39S2146.91 863.37 2394.12 863.37L2020 966 L-100 966 Z"></animate>
  <animateTransform attributeName="transform" type="translate" dur="5s" begin="-2.5s" repeatCount="indefinite" values="0;10;0" calcMode="spline" keySplines="0.3 0 0.7 1;0.3 0 0.7 1"></animateTransform>
</path><path d="M-100 828.05C176.68 839.54 176.62 893.87 447.1 893.87S725.41 818.54 994.19 818.54S1271.15 906.92 1541.29 906.92S1818.36 814.56 2088.39 814.56L2020 966 L-100 966 Z" fill="#0073ff" stroke-width="0">
  <animate attributeName="d" dur="2.5s" repeatCount="indefinite" values="M-100 828.05C176.68 839.54 176.62 893.87 447.1 893.87S725.41 818.54 994.19 818.54S1271.15 906.92 1541.29 906.92S1818.36 814.56 2088.39 814.56L2020 966 L-100 966 Z;M-100 947.18C174.47 924.88 179.04 905.45 447.1 905.45S725.93 800.75 994.19 800.75S1270.09 943.32 1541.29 943.32S1817.79 852.59 2088.39 852.59L2020 966 L-100 966 Z;M-100 828.05C176.68 839.54 176.62 893.87 447.1 893.87S725.41 818.54 994.19 818.54S1271.15 906.92 1541.29 906.92S1818.36 814.56 2088.39 814.56L2020 966 L-100 966 Z"></animate>
  <animateTransform attributeName="transform" type="translate" dur="2.5s" begin="-1.875s" repeatCount="indefinite" values="0;10;0" calcMode="spline" keySplines="0.3 0 0.7 1;0.3 0 0.7 1"></animateTransform>
</path></g>
</svg>